<svg xmlns="http://www.w3.org/2000/svg" viewBox="0 0 256 256" width="28px" focusable="false" color="var(--token-bbe488bf-57e9-4446-b408-63af1fba65e5, rgb(0, 16, 30)) /* {&quot;name&quot;:&quot;black&quot;} */" style="user-select: none; display: inline-block; fill: var(--token-bbe488bf-57e9-4446-b408-63af1fba65e5, rgb(0, 16, 30)); color: var(--token-bbe488bf-57e9-4446-b408-63af1fba65e5, rgb(0, 16, 30)); flex-shrink: 0;"><g color="var(--token-bbe488bf-57e9-4446-b408-63af1fba65e5, rgb(0, 16, 30)) /* {&quot;name&quot;:&quot;black&quot;} */" weight="bold"><path d="M100,36H56A20,20,0,0,0,36,56v44a20,20,0,0,0,20,20h44a20,20,0,0,0,20-20V56A20,20,0,0,0,100,36ZM96,96H60V60H96Zm4,40H56a20,20,0,0,0-20,20v44a20,20,0,0,0,20,20h44a20,20,0,0,0,20-20V156A20,20,0,0,0,100,136Zm-4,60H60V160H96ZM200,36H156a20,20,0,0,0-20,20v44a20,20,0,0,0,20,20h44a20,20,0,0,0,20-20V56A20,20,0,0,0,200,36Zm-4,60H160V60h36Zm-60,76V148a12,12,0,0,1,24,0v24a12,12,0,0,1-24,0Zm84-8a12,12,0,0,1-12,12H196v32a12,12,0,0,1-12,12H148a12,12,0,0,1,0-24h24V148a12,12,0,0,1,24,0v4h12A12,12,0,0,1,220,164Z"></path></g></svg>