 <svg
                          xmlns="http://www.w3.org/2000/svg"
                          width = "24px"
                          viewBox="0 0 256 256"
                          focusable="false"
                          color="var(--token-bbe488bf-57e9-4446-b408-63af1fba65e5, rgb(0, 16, 30))"
                        >
                          <g
                            color="var(--token-bbe488bf-57e9-4446-b408-63af1fba65e5, rgb(0, 16, 30))"
                            strokeWidth="bold"
                          >
                            <path d="M228,152v56a20,20,0,0,1-20,20H48a20,20,0,0,1-20-20V152a12,12,0,0,1,24,0v52H204V152a12,12,0,0,1,24,0Zm-108.49,8.49a12,12,0,0,0,17,0l40-40a12,12,0,0,0-17-17L140,123V40a12,12,0,0,0-24,0v83L96.49,103.51a12,12,0,0,0-17,17Z"></path>
                          </g>
                        </svg>